name analog
datacolumns 19
datarows 23
range 0.2715 0.28250000000000003
endheader
time	ground_force_vx	ground_force_vy	ground_force_vz	ground_force_px	ground_force_py	ground_force_pz	l_ground_force_vx	l_ground_force_vy	l_ground_force_vz	l_ground_force_px	l_ground_force_py	l_ground_force_pz	ground_torque_x	ground_torque_y	ground_torque_z	l_ground_torque_x	l_ground_torque_y	l_ground_torque_z
0.2715	-0.0	-0.0	-0.0	-0.0	-0.0	-0.0	10.867449760437012	-28.56036376953125	-775.4656982421875	-0.0	-0.0	-0.0	-0.0	-0.0	-0.0	238240.84375	-17257.373046875	3448.85595703125
0.272	-0.0	-0.0	-0.0	-0.0	-0.0	-0.0	11.17755889892578	-27.96479606628418	-774.9854125976562	-0.0	-0.0	-0.0	-0.0	-0.0	-0.0	237687.90625	-17567.50390625	3389.9248046875
0.2725	-0.0	-0.0	-0.0	-0.0	-0.0	-0.0	11.676533699035645	-27.26918029785156	-772.3673095703125	-0.0	-0.0	-0.0	-0.0	-0.0	-0.0	237226.75	-17795.099609375	3435.00634765625
0.273	-0.0	-0.0	-0.0	-0.0	-0.0	-0.0	11.765336990356444	-26.9602108001709	-772.4107055664062	-0.0	-0.0	-0.0	-0.0	-0.0	-0.0	236277.265625	-17746.5390625	3550.0830078125
0.2735	-0.0	-0.0	-0.0	-0.0	-0.0	-0.0	11.421422958374023	-26.98245429992676	-768.0904541015625	-0.0	-0.0	-0.0	-0.0	-0.0	-0.0	235260.59375	-17570.13671875	3360.752197265625
0.274	-0.0	-0.0	-0.0	-0.0	-0.0	-0.0	10.75634765625	-26.23219871520996	-765.4282836914062	-0.0	-0.0	-0.0	-0.0	-0.0	-0.0	234490.671875	-17317.015625	3011.99755859375
0.2745	-0.0	-0.0	-0.0	-0.0	-0.0	-0.0	9.946366310119627	-24.52129554748535	-761.848876953125	-0.0	-0.0	-0.0	-0.0	-0.0	-0.0	233915.359375	-17093.630859375	2904.323974609375
0.275	-0.0	-0.0	-0.0	-0.0	-0.0	-0.0	9.225921630859377	-22.291215896606445	-761.1505126953125	-0.0	-0.0	-0.0	-0.0	-0.0	-0.0	233444.859375	-16741.201171875	2577.7158203125
0.2755	-0.0	-0.0	-0.0	-0.0	-0.0	-0.0	8.183940887451172	-19.97266387939453	-758.3514404296875	-0.0	-0.0	-0.0	-0.0	-0.0	-0.0	233363.953125	-16530.43359375	2496.544677734375
0.276	-0.0	-0.0	-0.0	-0.0	-0.0	-0.0	7.950913429260254	-18.393407821655277	-759.1033935546875	-0.0	-0.0	-0.0	-0.0	-0.0	-0.0	233590.421875	-16302.5146484375	2418.882080078125
0.2765	-0.0	-0.0	-0.0	-0.0	-0.0	-0.0	7.263936519622803	-16.15256690979004	-758.26806640625	-0.0	-0.0	-0.0	-0.0	-0.0	-0.0	233927.984375	-16174.2060546875	2188.62109375
0.277	-0.0	-0.0	-0.0	-0.0	-0.0	-0.0	6.764766216278076	-14.398700714111328	-759.7942504882812	-0.0	-0.0	-0.0	-0.0	-0.0	-0.0	234697.859375	-15967.28515625	2025.9146728515625
0.2775	-0.0	-0.0	-0.0	-0.0	-0.0	-0.0	6.17680025100708	-11.890617370605469	-761.1007690429688	-0.0	-0.0	-0.0	-0.0	-0.0	-0.0	235738.90625	-15971.0908203125	2104.12451171875
0.278	-0.0	-0.0	-0.0	-0.0	-0.0	-0.0	5.710407257080078	-9.73816204071045	-765.3008422851562	-0.0	-0.0	-0.0	-0.0	-0.0	-0.0	237233.578125	-16083.9384765625	2092.43505859375
0.2785	-0.0	-0.0	-0.0	-0.0	-0.0	-0.0	5.733321189880371	-7.167023181915283	-767.1251831054688	-0.0	-0.0	-0.0	-0.0	-0.0	-0.0	238469.296875	-16067.20703125	2163.376953125
0.279	-0.0	-0.0	-0.0	-0.0	-0.0	-0.0	5.079521656036377	-5.60027551651001	-771.4957885742188	-0.0	-0.0	-0.0	-0.0	-0.0	-0.0	239882.0	-15940.64453125	2211.6064453125
0.2795	-0.0	-0.0	-0.0	-0.0	-0.0	-0.0	4.645775318145752	-3.34653377532959	-772.9307861328125	-0.0	-0.0	-0.0	-0.0	-0.0	-0.0	240995.59375	-15537.763671875	2138.264892578125
0.28	-0.0	-0.0	-0.0	-0.0	-0.0	-0.0	3.926431179046631	-1.97960901260376	-773.8868408203125	-0.0	-0.0	-0.0	-0.0	-0.0	-0.0	241984.09375	-15598.8642578125	2134.883544921875
0.2805	-0.0	-0.0	-0.0	-0.0	-0.0	-0.0	3.473419666290283	-0.6182518005371094	-776.2929077148438	-0.0	-0.0	-0.0	-0.0	-0.0	-0.0	242570.609375	-15347.712890625	1949.1905517578125
0.281	-0.0	-0.0	-0.0	-0.0	-0.0	-0.0	2.5166172981262207	0.2323931455612182	-775.61181640625	-0.0	-0.0	-0.0	-0.0	-0.0	-0.0	243026.78125	-15100.9296875	1904.976806640625
0.28150000000000003	-0.0	-0.0	-0.0	-0.0	-0.0	-0.0	1.8629264831542969	0.7948951721191406	-773.738525390625	-0.0	-0.0	-0.0	-0.0	-0.0	-0.0	243143.6875	-14834.439453125	1751.7052001953125
0.28200000000000003	-0.0	-0.0	-0.0	-0.0	-0.0	-0.0	1.522302746772766	1.0365331172943115	-772.5440063476562	-0.0	-0.0	-0.0	-0.0	-0.0	-0.0	243369.234375	-14660.53515625	1634.5430908203125
0.28250000000000003	-0.0	-0.0	-0.0	-0.0	-0.0	-0.0	1.1297550201416016	2.008016586303711	-771.1116943359375	-0.0	-0.0	-0.0	-0.0	-0.0	-0.0	243224.203125	-14817.6875	1398.5755615234375
